# xmcd CD database file
#
# Track frame offsets:
#	150
#	19208
#	42418
#	59800
#	79503
#	98903
#	114065
#	141120
#	158933
#	180470
#
# Disc length: 2579 seconds
#
# Revision: 2
# Processed by: cddbd v1.4PL0 Copyright (c) Steve Scherf et al.
# Submitted via: CDex 1.50beta10
#
DISCID=7d0a110a
DTITLE=Artie "Blues Boy" White - Tired Of Sneaking Around
DYEAR=1990
DGENRE=Blues
TTITLE0=Today I Started You Again
TTITLE1=Thinking About Making A Change
TTITLE2=Jodie
TTITLE3=Peeping Tom
TTITLE4=Tired Of Sneaking Around
TTITLE5=Don't Pet My Dog
TTITLE6=Can't Get You Off My Mind
TTITLE7=I Can't Seem To Please You
TTITLE8=Turn About Is Fair Play
TTITLE9=Nose To The Grind Stone
EXTD=YEAR: 1990
EXTT0=
EXTT1=
EXTT2=
EXTT3=
EXTT4=
EXTT5=
EXTT6=
EXTT7=
EXTT8=
EXTT9=
PLAYORDER=
